<mxfile host="app.diagrams.net" agent="Mozilla/5.0 (Windows NT 10.0; Win64; x64) AppleWebKit/537.36 (KHTML, like Gecko) Chrome/136.0.0.0 Safari/537.36 Edg/136.0.0.0" version="27.0.6">
  <diagram name="ページ1" id="awKE1UMGdxs6jAsw6-Rr">
    <mxGraphModel grid="1" page="1" gridSize="10" guides="1" tooltips="1" connect="1" arrows="1" fold="1" pageScale="1" pageWidth="827" pageHeight="1169" math="0" shadow="0">
      <root>
        <mxCell id="0" />
        <mxCell id="1" parent="0" />
        <mxCell id="WoTdFIvGoWuvpCkUA2eD-1" value="ユーザー" style="shape=umlActor;verticalLabelPosition=bottom;verticalAlign=top;html=1;outlineConnect=0;" vertex="1" parent="1">
          <mxGeometry x="50" y="250" width="30" height="60" as="geometry" />
        </mxCell>
        <mxCell id="WoTdFIvGoWuvpCkUA2eD-2" value="管理者" style="shape=umlActor;verticalLabelPosition=bottom;verticalAlign=top;html=1;outlineConnect=0;" vertex="1" parent="1">
          <mxGeometry x="690" y="250" width="30" height="60" as="geometry" />
        </mxCell>
        <mxCell id="WoTdFIvGoWuvpCkUA2eD-3" value="" style="ellipse;whiteSpace=wrap;html=1;" vertex="1" parent="1">
          <mxGeometry x="350" y="10" width="100" height="60" as="geometry" />
        </mxCell>
        <mxCell id="WoTdFIvGoWuvpCkUA2eD-4" value="" style="ellipse;whiteSpace=wrap;html=1;" vertex="1" parent="1">
          <mxGeometry x="350" y="80" width="100" height="60" as="geometry" />
        </mxCell>
        <mxCell id="WoTdFIvGoWuvpCkUA2eD-5" value="" style="ellipse;whiteSpace=wrap;html=1;" vertex="1" parent="1">
          <mxGeometry x="335" y="150" width="130" height="60" as="geometry" />
        </mxCell>
        <mxCell id="WoTdFIvGoWuvpCkUA2eD-6" value="" style="ellipse;whiteSpace=wrap;html=1;" vertex="1" parent="1">
          <mxGeometry x="345" y="220" width="110" height="60" as="geometry" />
        </mxCell>
        <mxCell id="WoTdFIvGoWuvpCkUA2eD-7" value="収支編集&lt;div&gt;（入力・削除）&lt;/div&gt;" style="ellipse;whiteSpace=wrap;html=1;" vertex="1" parent="1">
          <mxGeometry x="345" y="290" width="110" height="60" as="geometry" />
        </mxCell>
        <mxCell id="WoTdFIvGoWuvpCkUA2eD-8" style="edgeStyle=orthogonalEdgeStyle;rounded=0;orthogonalLoop=1;jettySize=auto;html=1;exitX=0.5;exitY=1;exitDx=0;exitDy=0;" edge="1" parent="1" source="WoTdFIvGoWuvpCkUA2eD-4" target="WoTdFIvGoWuvpCkUA2eD-4">
          <mxGeometry relative="1" as="geometry" />
        </mxCell>
        <mxCell id="XMnFgntaKjzUBgVNBEmI-1" value="ログイン" style="text;html=1;align=center;verticalAlign=middle;resizable=0;points=[];autosize=1;strokeColor=none;fillColor=none;" vertex="1" parent="1">
          <mxGeometry x="365" y="25" width="70" height="30" as="geometry" />
        </mxCell>
        <mxCell id="XMnFgntaKjzUBgVNBEmI-2" value="ログアウト" style="text;html=1;align=center;verticalAlign=middle;resizable=0;points=[];autosize=1;strokeColor=none;fillColor=none;" vertex="1" parent="1">
          <mxGeometry x="360" y="95" width="80" height="30" as="geometry" />
        </mxCell>
        <mxCell id="XMnFgntaKjzUBgVNBEmI-3" value="新規登録" style="text;html=1;align=center;verticalAlign=middle;resizable=0;points=[];autosize=1;strokeColor=none;fillColor=none;" vertex="1" parent="1">
          <mxGeometry x="365" y="235" width="70" height="30" as="geometry" />
        </mxCell>
        <mxCell id="XMnFgntaKjzUBgVNBEmI-4" value="パスワードリセット" style="text;html=1;align=center;verticalAlign=middle;resizable=0;points=[];autosize=1;strokeColor=none;fillColor=none;" vertex="1" parent="1">
          <mxGeometry x="335" y="165" width="130" height="30" as="geometry" />
        </mxCell>
        <mxCell id="umVpwB8pKI1dElh54bwU-1" value="収支一覧表示&lt;div&gt;（グラフ表示）&lt;/div&gt;" style="ellipse;whiteSpace=wrap;html=1;" vertex="1" parent="1">
          <mxGeometry x="350" y="480" width="110" height="50" as="geometry" />
        </mxCell>
        <mxCell id="umVpwB8pKI1dElh54bwU-2" value="退会" style="ellipse;whiteSpace=wrap;html=1;" vertex="1" parent="1">
          <mxGeometry x="350" y="360" width="110" height="50" as="geometry" />
        </mxCell>
        <mxCell id="umVpwB8pKI1dElh54bwU-3" value="目標金額・&lt;div&gt;達成状況表示&lt;/div&gt;" style="ellipse;whiteSpace=wrap;html=1;" vertex="1" parent="1">
          <mxGeometry x="350" y="420" width="110" height="50" as="geometry" />
        </mxCell>
        <mxCell id="umVpwB8pKI1dElh54bwU-4" value="ユーザー一覧表示" style="ellipse;whiteSpace=wrap;html=1;" vertex="1" parent="1">
          <mxGeometry x="540" y="450" width="110" height="50" as="geometry" />
        </mxCell>
        <mxCell id="umVpwB8pKI1dElh54bwU-5" value="" style="endArrow=classic;html=1;rounded=0;entryX=0;entryY=0.5;entryDx=0;entryDy=0;" edge="1" parent="1" target="WoTdFIvGoWuvpCkUA2eD-3">
          <mxGeometry width="50" height="50" relative="1" as="geometry">
            <mxPoint x="100" y="285" as="sourcePoint" />
            <mxPoint x="150" y="235" as="targetPoint" />
            <Array as="points">
              <mxPoint x="110" y="275" />
              <mxPoint x="120" y="265" />
            </Array>
          </mxGeometry>
        </mxCell>
        <mxCell id="umVpwB8pKI1dElh54bwU-6" value="" style="endArrow=classic;html=1;rounded=0;entryX=0;entryY=0.5;entryDx=0;entryDy=0;" edge="1" parent="1" target="WoTdFIvGoWuvpCkUA2eD-4">
          <mxGeometry width="50" height="50" relative="1" as="geometry">
            <mxPoint x="100" y="290" as="sourcePoint" />
            <mxPoint x="250" y="280" as="targetPoint" />
          </mxGeometry>
        </mxCell>
        <mxCell id="umVpwB8pKI1dElh54bwU-7" value="" style="endArrow=classic;html=1;rounded=0;entryX=0.017;entryY=0.593;entryDx=0;entryDy=0;entryPerimeter=0;" edge="1" parent="1" target="XMnFgntaKjzUBgVNBEmI-4">
          <mxGeometry width="50" height="50" relative="1" as="geometry">
            <mxPoint x="100" y="290" as="sourcePoint" />
            <mxPoint x="320" y="190" as="targetPoint" />
          </mxGeometry>
        </mxCell>
        <mxCell id="umVpwB8pKI1dElh54bwU-8" value="" style="endArrow=classic;html=1;rounded=0;entryX=0;entryY=0.5;entryDx=0;entryDy=0;" edge="1" parent="1" target="WoTdFIvGoWuvpCkUA2eD-6">
          <mxGeometry width="50" height="50" relative="1" as="geometry">
            <mxPoint x="100" y="290" as="sourcePoint" />
            <mxPoint x="250" y="280" as="targetPoint" />
          </mxGeometry>
        </mxCell>
        <mxCell id="umVpwB8pKI1dElh54bwU-10" value="" style="endArrow=classic;html=1;rounded=0;entryX=0;entryY=0.5;entryDx=0;entryDy=0;" edge="1" parent="1" target="WoTdFIvGoWuvpCkUA2eD-7">
          <mxGeometry width="50" height="50" relative="1" as="geometry">
            <mxPoint x="100" y="290" as="sourcePoint" />
            <mxPoint x="250" y="280" as="targetPoint" />
          </mxGeometry>
        </mxCell>
        <mxCell id="umVpwB8pKI1dElh54bwU-11" value="" style="endArrow=classic;html=1;rounded=0;entryX=0;entryY=0.5;entryDx=0;entryDy=0;" edge="1" parent="1" target="umVpwB8pKI1dElh54bwU-1">
          <mxGeometry width="50" height="50" relative="1" as="geometry">
            <mxPoint x="100" y="290" as="sourcePoint" />
            <mxPoint x="250" y="280" as="targetPoint" />
          </mxGeometry>
        </mxCell>
        <mxCell id="umVpwB8pKI1dElh54bwU-12" value="" style="endArrow=classic;html=1;rounded=0;entryX=0;entryY=0.5;entryDx=0;entryDy=0;" edge="1" parent="1" target="umVpwB8pKI1dElh54bwU-3">
          <mxGeometry width="50" height="50" relative="1" as="geometry">
            <mxPoint x="100" y="290" as="sourcePoint" />
            <mxPoint x="250" y="280" as="targetPoint" />
          </mxGeometry>
        </mxCell>
        <mxCell id="umVpwB8pKI1dElh54bwU-13" value="" style="endArrow=classic;html=1;rounded=0;entryX=0.002;entryY=0.68;entryDx=0;entryDy=0;entryPerimeter=0;" edge="1" parent="1" target="umVpwB8pKI1dElh54bwU-2">
          <mxGeometry width="50" height="50" relative="1" as="geometry">
            <mxPoint x="100" y="290" as="sourcePoint" />
            <mxPoint x="250" y="280" as="targetPoint" />
          </mxGeometry>
        </mxCell>
        <mxCell id="umVpwB8pKI1dElh54bwU-14" value="" style="endArrow=classic;html=1;rounded=0;entryX=1;entryY=0.5;entryDx=0;entryDy=0;" edge="1" parent="1" target="WoTdFIvGoWuvpCkUA2eD-3">
          <mxGeometry width="50" height="50" relative="1" as="geometry">
            <mxPoint x="680" y="290" as="sourcePoint" />
            <mxPoint x="250" y="280" as="targetPoint" />
          </mxGeometry>
        </mxCell>
        <mxCell id="umVpwB8pKI1dElh54bwU-15" value="" style="endArrow=classic;html=1;rounded=0;entryX=1;entryY=0.5;entryDx=0;entryDy=0;" edge="1" parent="1" target="WoTdFIvGoWuvpCkUA2eD-4">
          <mxGeometry width="50" height="50" relative="1" as="geometry">
            <mxPoint x="680" y="290" as="sourcePoint" />
            <mxPoint x="250" y="280" as="targetPoint" />
          </mxGeometry>
        </mxCell>
        <mxCell id="umVpwB8pKI1dElh54bwU-16" value="" style="endArrow=classic;html=1;rounded=0;entryX=1.02;entryY=0.513;entryDx=0;entryDy=0;entryPerimeter=0;" edge="1" parent="1" target="XMnFgntaKjzUBgVNBEmI-4">
          <mxGeometry width="50" height="50" relative="1" as="geometry">
            <mxPoint x="680" y="290" as="sourcePoint" />
            <mxPoint x="250" y="280" as="targetPoint" />
          </mxGeometry>
        </mxCell>
        <mxCell id="umVpwB8pKI1dElh54bwU-17" value="" style="endArrow=classic;html=1;rounded=0;entryX=1;entryY=0.5;entryDx=0;entryDy=0;" edge="1" parent="1" target="WoTdFIvGoWuvpCkUA2eD-6">
          <mxGeometry width="50" height="50" relative="1" as="geometry">
            <mxPoint x="680" y="290" as="sourcePoint" />
            <mxPoint x="250" y="280" as="targetPoint" />
          </mxGeometry>
        </mxCell>
        <mxCell id="umVpwB8pKI1dElh54bwU-18" value="" style="endArrow=classic;html=1;rounded=0;entryX=1;entryY=0.5;entryDx=0;entryDy=0;" edge="1" parent="1" target="WoTdFIvGoWuvpCkUA2eD-7">
          <mxGeometry width="50" height="50" relative="1" as="geometry">
            <mxPoint x="680" y="290" as="sourcePoint" />
            <mxPoint x="250" y="280" as="targetPoint" />
          </mxGeometry>
        </mxCell>
        <mxCell id="umVpwB8pKI1dElh54bwU-19" value="" style="endArrow=classic;html=1;rounded=0;entryX=1;entryY=0.5;entryDx=0;entryDy=0;" edge="1" parent="1" target="umVpwB8pKI1dElh54bwU-4">
          <mxGeometry width="50" height="50" relative="1" as="geometry">
            <mxPoint x="680" y="290" as="sourcePoint" />
            <mxPoint x="250" y="280" as="targetPoint" />
          </mxGeometry>
        </mxCell>
        <mxCell id="umVpwB8pKI1dElh54bwU-20" value="" style="endArrow=classic;html=1;rounded=0;exitX=0;exitY=0.5;exitDx=0;exitDy=0;entryX=1;entryY=0.5;entryDx=0;entryDy=0;" edge="1" parent="1" source="umVpwB8pKI1dElh54bwU-4" target="umVpwB8pKI1dElh54bwU-1">
          <mxGeometry width="50" height="50" relative="1" as="geometry">
            <mxPoint x="200" y="330" as="sourcePoint" />
            <mxPoint x="250" y="280" as="targetPoint" />
          </mxGeometry>
        </mxCell>
        <mxCell id="umVpwB8pKI1dElh54bwU-21" value="" style="endArrow=classic;html=1;rounded=0;exitX=0;exitY=0.5;exitDx=0;exitDy=0;entryX=1;entryY=0.5;entryDx=0;entryDy=0;" edge="1" parent="1" source="umVpwB8pKI1dElh54bwU-4" target="umVpwB8pKI1dElh54bwU-3">
          <mxGeometry width="50" height="50" relative="1" as="geometry">
            <mxPoint x="200" y="330" as="sourcePoint" />
            <mxPoint x="250" y="280" as="targetPoint" />
          </mxGeometry>
        </mxCell>
        <mxCell id="umVpwB8pKI1dElh54bwU-22" value="" style="endArrow=classic;html=1;rounded=0;entryX=1;entryY=0.5;entryDx=0;entryDy=0;" edge="1" parent="1" target="umVpwB8pKI1dElh54bwU-2">
          <mxGeometry width="50" height="50" relative="1" as="geometry">
            <mxPoint x="680" y="290" as="sourcePoint" />
            <mxPoint x="250" y="280" as="targetPoint" />
          </mxGeometry>
        </mxCell>
      </root>
    </mxGraphModel>
  </diagram>
</mxfile>
